Coordinates
version=1
nRows=60
nColumns=12
inDegrees=yes

Units are S.I. units (second, meters, Newtons, ...)
Angles are in degrees

endheader
time	SC_y	SC_z	SC_x	AC_y	AC_z	AC_x	GH_y	GH_z	GH_yy	EL_x	PS_y
       0.0              -20.95          16.73           43.7          33.58         -1.349          13.66          150.6         -19.26           37.0          49.28          45.72
   0.02464              -20.95          16.73           43.7          33.59         -1.351          13.65          150.6         -19.25          37.01          49.29          45.74
   0.04929              -20.96          16.74           43.7          33.59         -1.353          13.65          150.6         -19.25          37.01           49.3          45.75
   0.07393              -20.96          16.74           43.7           33.6         -1.355          13.64          150.6         -19.25          37.01          49.31          45.77
   0.09858              -20.96          16.74           43.7           33.6         -1.358          13.64          150.6         -19.24          37.02          49.32          45.79
    0.1232              -20.97          16.74           43.7          33.61          -1.36          13.64          150.6         -19.24          37.02          49.33          45.81
    0.1479              -20.97          16.74           43.7          33.62         -1.363          13.63          150.6         -19.24          37.02          49.34          45.83
    0.1725              -20.98          16.74           43.7          33.62         -1.366          13.63          150.6         -19.23          37.03          49.36          45.85
    0.1972              -20.99          16.74           43.7          33.63         -1.369          13.62          150.6         -19.23          37.03          49.37          45.87
    0.2218              -20.99          16.74           43.7          33.64         -1.372          13.61          150.6         -19.22          37.04          49.39           45.9
    0.2464               -21.0          16.75           43.7          33.65         -1.376          13.61          150.6         -19.21          37.04          49.41          45.92
    0.2711              -21.01          16.75           43.7          33.66          -1.38           13.6          150.6         -19.21          37.05          49.43          45.95
    0.2957              -21.01          16.75           43.7          33.67         -1.384          13.59          150.7          -19.2          37.05          49.44          45.98
    0.3204              -21.02          16.75           43.7          33.68         -1.389          13.59          150.7         -19.19          37.06          49.47          46.01
     0.345              -21.03          16.75           43.7          33.69         -1.393          13.58          150.7         -19.19          37.06          49.49          46.05
    0.3697              -21.04          16.76           43.7           33.7         -1.399          13.57          150.7         -19.18          37.07          49.51          46.09
    0.3943              -21.05          16.76           43.7          33.72         -1.404          13.56          150.7         -19.17          37.08          49.54          46.13
     0.419              -21.07          16.76           43.7          33.73         -1.411          13.55          150.7         -19.16          37.09          49.57          46.18
    0.4436              -21.08          16.77           43.7          33.75         -1.418          13.53          150.7         -19.15           37.1           49.6          46.23
    0.4682              -21.09          16.77           43.7          33.77         -1.425          13.52          150.7         -19.14          37.11          49.64          46.28
    0.4929              -21.11          16.77           43.7          33.79         -1.433          13.51          150.7         -19.12          37.12          49.68          46.35
    0.5175              -21.13          16.78          43.71          33.81         -1.442          13.49          150.8         -19.11          37.13          49.72          46.41
    0.5422              -21.15          16.78          43.71          33.83         -1.452          13.47          150.8         -19.09          37.14          49.77          46.49
    0.5668              -21.17          16.79          43.71          33.86         -1.463          13.45          150.8         -19.08          37.16          49.82          46.57
    0.5915              -21.19          16.79          43.71          33.89         -1.476          13.43          150.8         -19.06          37.17          49.88          46.66
    0.6161              -21.22           16.8          43.71          33.92          -1.49          13.41          150.9         -19.04          37.19          49.95          46.76
    0.6408              -21.25          16.81          43.71          33.96         -1.505          13.38          150.9         -19.01          37.21          50.02          46.87
    0.6654              -21.28          16.82          43.71           34.0         -1.522          13.35          150.9         -18.98          37.24           50.1           47.0
      0.69              -21.32          16.83          43.71          34.05         -1.542          13.31          150.9         -18.95          37.26           50.2          47.15
    0.7147              -21.36          16.84          43.72          34.11         -1.564          13.27          151.0         -18.92          37.29           50.3          47.31
    0.7393              -21.41          16.85          43.72          34.17         -1.589          13.23          151.0         -18.88          37.32          50.42           47.5
     0.764              -21.46          16.86          43.72          34.24         -1.619          13.17          151.1         -18.83          37.36          50.56          47.71
    0.7886              -21.53          16.88          43.73          34.32         -1.652          13.11          151.2         -18.78          37.41          50.72          47.96
    0.8133               -21.6           16.9          43.73          34.41         -1.691          13.04          151.2         -18.72          37.46          50.91          48.25
    0.8379              -21.69          16.92          43.73          34.53         -1.737          12.96          151.3         -18.64          37.52          51.13          48.59
    0.8626              -21.79          16.94          43.74          34.66         -1.791          12.87          151.4         -18.56          37.59          51.38          48.98
    0.8872              -21.92          16.97          43.74          34.81         -1.855          12.75          151.5         -18.46          37.68          51.69          49.46
    0.9118              -22.06          17.01          43.75           35.0         -1.931          12.62          151.7         -18.34          37.78          52.05          50.02
    0.9365              -22.24          17.05          43.76          35.22         -2.024          12.45          151.8         -18.19           37.9          52.49          50.71
    0.9611              -22.46          17.11          43.77           35.5         -2.138          12.25          152.1         -18.01          38.05          53.03          51.55
    0.9858              -22.72          17.17          43.78          35.84         -2.278           12.0          152.3         -17.79          38.24           53.7          52.58
      1.01              -23.06          17.26           43.8          36.26         -2.452          11.69          152.6         -17.51          38.47          54.53          53.87
     1.035              -23.48          17.36          43.82           36.8         -2.672          11.29          153.1         -17.17          38.77          55.58          55.49
      1.06              -24.01          17.49          43.85          37.48         -2.952          10.79          153.6         -16.72          39.14          56.91          57.55
     1.084               -24.7          17.66          43.88          38.35         -3.309          10.15          154.2         -16.16          39.62          58.62          60.19
     1.109              -25.58          17.88          43.93          39.46         -3.768          9.335          155.1         -15.43          40.23           60.8          63.58
     1.134               -26.7          18.16          43.98          40.89         -4.355          8.288          156.2         -14.51          41.01          63.59          67.91
     1.158              -28.11          18.51          44.05          42.68         -5.092          6.971          157.6         -13.34          41.99          67.11          73.36
     1.183              -29.83          18.94          44.14          44.86         -5.991          5.366          159.2         -11.92          43.19          71.39          79.99
     1.208              -31.82          19.43          44.24           47.4         -7.032          3.506          161.2         -10.27          44.57          76.35          87.68
     1.232              -33.98          19.97          44.34          50.14          -8.16          1.492          163.3          -8.49          46.07          81.72          96.01
     1.257              -36.14           20.5          44.45          52.88         -9.288        -0.5227          165.4         -6.707          47.58          87.09          104.3
     1.282              -38.13           21.0          44.55          55.41         -10.33         -2.383          167.3          -5.06          48.96          92.05          112.0
     1.306              -39.85          21.42          44.63          57.59         -11.23         -3.988          169.0          -3.64          50.16          96.33          118.7
     1.331              -41.26          21.77           44.7          59.39         -11.97         -5.305          170.4         -2.474          51.14          99.84          124.1
     1.355              -42.38          22.05          44.76          60.81         -12.55         -6.352          171.5         -1.547          51.92          102.6          128.4
      1.38              -43.26          22.27           44.8          61.93         -13.01         -7.172          172.3        -0.8211          52.53          104.8          131.8
     1.405              -43.94          22.44          44.84           62.8         -13.37         -7.811          173.0        -0.2556          53.01          106.5          134.5
     1.429              -44.48          22.57          44.86          63.48         -13.65          -8.31          173.5         0.1863          53.38          107.9          136.5
     1.454               -44.9          22.68          44.89          64.01         -13.87         -8.703          173.9         0.5339          53.67          108.9          138.1
